<svg width="20" height="21" viewBox="0 0 20 21" fill="#777777" xmlns="http://www.w3.org/2000/svg">
<g clip-path="url(#clip0_124_18)">
<path d="M16.4726 8.89119L7.36327 17.9967L6.03905 16.6724L6.17577 16.5357H4.37499C4.03124 16.5357 3.74999 16.2545 3.74999 15.9107V14.1099L3.61366 14.2467C3.4289 14.4342 3.29335 14.6607 3.21952 14.9107L2.32187 17.9654L5.37499 17.067C5.58984 16.9928 5.85155 16.856 6.03905 16.6724L7.36327 17.9967C6.95702 18.4029 6.45312 18.7037 5.90234 18.8638L1.20194 20.2467C0.873038 20.3443 0.517179 20.2545 0.274601 19.9771C0.0320146 19.7701 -0.0586807 19.4146 0.0381162 19.0826L1.42069 14.3834C1.58319 13.8326 1.88124 13.3287 2.28788 12.9224L11.3945 3.81463L16.4726 8.89119ZM19.2461 2.58064C20.2226 3.55681 20.2226 5.14119 19.2461 6.11775L17.3555 8.00838L12.2773 2.93103L14.168 1.04041C15.1445 0.0639233 16.7305 0.0639233 17.707 1.04041L19.2461 2.58064Z" fill="#777777"/>
</g>
<defs>
<clipPath id="clip0_124_18">
<rect width="20" height="20" fill="white" transform="translate(0 0.285721)"/>
</clipPath>
</defs>
</svg>
