<svg width="150" height="49" viewBox="0 0 150 49" fill="none" xmlns="http://www.w3.org/2000/svg">
<path d="M74.4351 0.94697C115.694 0.94697 149.125 10.8391 149.125 23.0474C149.125 28.3207 142.895 33.1393 132.502 36.9346C136.149 42.2865 148.337 47.0573 148.483 47.1104C149.139 47.3495 149.322 47.7196 148.921 48.0384C148.555 48.3567 147.747 48.548 146.798 48.548C127.467 48.548 113.214 45.1734 105.773 43.0877C96.2608 44.3935 85.6397 45.1479 74.4351 45.1479C33.1763 45.1479 3.05176e-05 35.2526 3.05176e-05 23.0474C3.05176e-05 10.8422 33.1763 0.94697 74.4351 0.94697Z" fill="#25567B" fill-opacity="0.15"/>
</svg>
