<svg width="18" height="20" viewBox="0 0 18 20" fill="#777777" xmlns="http://www.w3.org/2000/svg">
<g clip-path="url(#clip0_28_12)">
<path d="M5.3832 0.691016C5.59821 0.2675 6.04018 0 6.52196 0H11.3159C11.7977 0 12.2396 0.2675 12.4546 0.691016L12.7413 1.25H16.5637C17.2685 1.25 17.8378 1.80977 17.8378 2.5C17.8378 3.19023 17.2685 3.75 16.5637 3.75H1.27413C0.570572 3.75 0 3.19023 0 2.5C0 1.80977 0.570572 1.25 1.27413 1.25H5.09652L5.3832 0.691016ZM1.2383 5H16.5637V17.5C16.5637 18.8789 15.421 20 14.0154 20H3.78656C2.41488 20 1.2383 18.8789 1.2383 17.5V5ZM4.42362 8.125V16.875C4.42362 17.2188 4.74614 17.5 5.06069 17.5C5.44691 17.5 5.69776 17.2188 5.69776 16.875V8.125C5.69776 7.78125 5.44691 7.5 5.06069 7.5C4.74614 7.5 4.42362 7.78125 4.42362 8.125ZM8.24602 8.125V16.875C8.24602 17.2188 8.56853 17.5 8.88308 17.5C9.2693 17.5 9.55598 17.2188 9.55598 16.875V8.125C9.55598 7.78125 9.2693 7.5 8.88308 7.5C8.56853 7.5 8.24602 7.78125 8.24602 8.125ZM12.1042 8.125V16.875C12.1042 17.2188 12.3909 17.5 12.7413 17.5C13.0917 17.5 13.3784 17.2188 13.3784 16.875V8.125C13.3784 7.78125 13.0917 7.5 12.7413 7.5C12.3909 7.5 12.1042 7.78125 12.1042 8.125Z" fill="#777777"/>
</g>
<defs>
<clipPath id="clip0_28_12">
<rect width="17.8378" height="20" fill="white"/>
</clipPath>
</defs>
</svg>
