<svg width="40" height="45" viewBox="0 0 40 45" fill="none" xmlns="http://www.w3.org/2000/svg">
<g clip-path="url(#clip0_67_177)">
<path d="M20.1875 22.3977C26.4014 22.3977 31.4375 17.3836 31.4375 11.1989C31.4375 5.01412 26.4014 0 20.1875 0C13.9736 0 8.9375 5.01412 8.9375 11.1989C8.9375 17.3836 13.9736 22.3977 20.1875 22.3977ZM24.6436 26.5973H15.7314C7.32119 26.5973 0.5 33.3866 0.5 41.7595C0.5 43.4341 1.86406 44.7928 3.54629 44.7928H36.8305C38.5127 44.7955 39.875 43.4393 39.875 41.7595C39.875 33.3866 33.0547 26.5973 24.6436 26.5973Z" fill="white"/>
</g>
<defs>
<clipPath id="clip0_67_177">
<rect x="0.5" width="39.375" height="45" rx="8" fill="white"/>
</clipPath>
</defs>
</svg>
