<svg width="20" height="24" viewBox="0 0 20 24" fill="#777777" xmlns="http://www.w3.org/2000/svg">
<path d="M18.4196 8.97769C17.9607 8.60519 17.2853 8.67077 16.9129 9.12974C16.5377 9.58733 16.6046 10.2623 17.0636 10.6378C17.567 11.0536 17.8571 11.6518 17.8571 12.2857C17.8571 12.9192 17.567 13.5188 17.0621 13.9317C16.6031 14.307 16.5362 14.9822 16.9114 15.4397C17.1221 15.6992 17.4301 15.8331 17.74 15.8331C17.9785 15.8331 18.2199 15.7536 18.4181 15.5918C19.4241 14.7679 20 13.567 20 12.2857C20 11.0045 19.4241 9.80358 18.4196 8.97769ZM13.4464 2.41251C12.933 2.18095 12.3299 2.2734 11.9094 2.64729L5.88393 8.00001H2.14286C0.959375 8.00001 0 8.95938 0 10.1027V14.3482C0 15.5317 0.959375 16.4509 2.14286 16.4509H5.88571L11.908 21.8036C12.1741 22.1607 12.5134 22.2857 12.8571 22.2857C13.0553 22.2857 13.2571 22.2441 13.4446 22.1591C13.9598 21.9286 14.2857 21.4197 14.2857 20.8572V3.71429C14.2857 3.15224 13.9598 2.60269 13.4464 2.41251Z" fill="#777777"/>
</svg>
